ffmpeg started on 2016-12-06 at 08:56:40
Report written to "Output/x264/results/ffmpeg/crowd_run_2160p50fast9000k.log"
Command line:
Tools/ffmpeg/ffmpeg -benchmark -y -i Input/y4m/crowd_run_2160p50.y4m -c:v libx264 -preset fast -b:v 9000k -an Output/x264/encoded/crowd_run_2160p50fast9000k.mkv
ffmpeg version N-82227-gdb23fde Copyright (c) 2000-2016 the FFmpeg developers
  built with gcc 5.4.0 (Ubuntu 5.4.0-6ubuntu1~16.04.2) 20160609
  configuration: --prefix=/home/jaroslav/ffmpeg_build --pkg-config-flags=--static --extra-cflags=-I/home/jaroslav/ffmpeg_build/include --extra-ldflags=-L/home/jaroslav/ffmpeg_build/lib --bindir=/home/jaroslav/bin --enable-gpl --enable-libass --enable-libfdk-aac --enable-libfreetype --enable-libmp3lame --enable-libopus --enable-libtheora --enable-libvorbis --enable-libvpx --enable-libx264 --enable-libx265 --enable-nvenc --enable-libmfx --enable-libxvid --enable-libgsm --enable-libopencore-amrnb --enable-version3 --enable-nonfree
  libavutil      55. 35.100 / 55. 35.100
  libavcodec     57. 66.101 / 57. 66.101
  libavformat    57. 57.100 / 57. 57.100
  libavdevice    57.  2.100 / 57.  2.100
  libavfilter     6. 66.100 /  6. 66.100
  libswscale      4.  3.100 /  4.  3.100
  libswresample   2.  4.100 /  2.  4.100
  libpostproc    54.  2.100 / 54.  2.100
Input #0, yuv4mpegpipe, from 'Input/y4m/crowd_run_2160p50.y4m':
  Duration: 00:00:10.00, start: 0.000000, bitrate: 4976642 kb/s
    Stream #0:0: Video: rawvideo (I420 / 0x30323449), yuv420p(progressive), 3840x2160, SAR 1:1 DAR 16:9, 50 fps, 50 tbr, 50 tbn, 50 tbc
[libx264 @ 0x35b81c0] using SAR=1/1
[libx264 @ 0x35b81c0] using cpu capabilities: MMX2 SSE2Fast SSSE3 SSE4.2 AVX FMA3 AVX2 LZCNT BMI2
[libx264 @ 0x35b81c0] profile High, level 5.2
[libx264 @ 0x35b81c0] 264 - core 148 - H.264/MPEG-4 AVC codec - Copyleft 2003-2016 - http://www.videolan.org/x264.html - options: cabac=1 ref=2 deblock=1:0:0 analyse=0x3:0x113 me=hex subme=6 psy=1 psy_rd=1.00:0.00 mixed_ref=1 me_range=16 chroma_me=1 trellis=1 8x8dct=1 cqm=0 deadzone=21,11 fast_pskip=1 chroma_qp_offset=-2 threads=6 lookahead_threads=1 sliced_threads=0 nr=0 decimate=1 interlaced=0 bluray_compat=0 constrained_intra=0 bframes=3 b_pyramid=2 b_adapt=1 b_bias=0 direct=1 weightb=1 open_gop=0 weightp=1 keyint=250 keyint_min=25 scenecut=40 intra_refresh=0 rc_lookahead=30 rc=abr mbtree=1 bitrate=9000 ratetol=1.0 qcomp=0.60 qpmin=0 qpmax=69 qpstep=4 ip_ratio=1.40 aq=1:1.00
Output #0, matroska, to 'Output/x264/encoded/crowd_run_2160p50fast9000k.mkv':
  Metadata:
    encoder         : Lavf57.57.100
    Stream #0:0: Video: h264 (libx264) (H264 / 0x34363248), yuv420p, 3840x2160 [SAR 1:1 DAR 16:9], q=-1--1, 9000 kb/s, 50 fps, 1k tbn, 50 tbc
    Metadata:
      encoder         : Lavc57.66.101 libx264
    Side data:
      cpb: bitrate max/min/avg: 0/0/9000000 buffer size: 0 vbv_delay: -1
Stream mapping:
  Stream #0:0 -> #0:0 (rawvideo (native) -> h264 (libx264))
Press [q] to stop, [?] for help
frame=   19 fps=0.0 q=0.0 size=       0kB time=00:00:00.00 bitrate=N/A speed=   0x    frame=   36 fps= 35 q=0.0 size=       0kB time=00:00:00.00 bitrate=N/A speed=   0x    frame=   37 fps= 14 q=0.0 size=       0kB time=00:00:00.00 bitrate=N/A speed=   0x    frame=   43 fps= 13 q=35.0 size=       1kB time=00:00:00.00 bitrate=5872.0kbits/s speed=0.000309x    frame=   48 fps= 13 q=42.0 size=       1kB time=00:00:00.10 bitrate=  58.1kbits/s speed=0.0269x    frame=   56 fps= 13 q=51.0 size=       1kB time=00:00:00.26 bitrate=  22.5kbits/s speed=0.0593x    frame=   65 fps= 13 q=50.0 size=       1kB time=00:00:00.44 bitrate=  13.3kbits/s speed=0.0888x    frame=   72 fps= 13 q=50.0 size=       1kB time=00:00:00.58 bitrate=  10.1kbits/s speed=0.105x    frame=   81 fps= 13 q=50.0 size=       1kB time=00:00:00.76 bitrate=   7.7kbits/s speed=0.125x    frame=   89 fps= 13 q=50.0 size=       1kB time=00:00:00.92 bitrate=   6.4kbits/s speed=0.139x    frame=   97 fps= 14 q=50.0 size=       1kB time=00:00:01.08 bitrate=   5.4kbits/s speed=0.151x    frame=  104 fps= 14 q=49.0 size=       1kB time=00:00:01.22 bitrate=   4.8kbits/s speed=0.159x    frame=  113 fps= 14 q=49.0 size=       1kB time=00:00:01.40 bitrate=   4.2kbits/s speed=0.17x    frame=  122 fps= 14 q=49.0 size=       1kB time=00:00:01.58 bitrate=   3.7kbits/s speed=0.18x    frame=  130 fps= 14 q=49.0 size=       1kB time=00:00:01.74 bitrate=   3.4kbits/s speed=0.186x    frame=  137 fps= 14 q=49.0 size=       1kB time=00:00:01.88 bitrate=   3.1kbits/s speed=0.19x    frame=  146 fps= 14 q=49.0 size=       1kB time=00:00:02.06 bitrate=   2.8kbits/s speed=0.198x    frame=  154 fps= 14 q=48.0 size=       1kB time=00:00:02.22 bitrate=   2.6kbits/s speed=0.202x    frame=  161 fps= 14 q=48.0 size=       1kB time=00:00:02.36 bitrate=   2.5kbits/s speed=0.202x    frame=  170 fps= 14 q=48.0 size=       1kB time=00:00:02.54 bitrate=   2.3kbits/s speed=0.208x    frame=  178 fps= 14 q=48.0 size=       1kB time=00:00:02.70 bitrate=   2.2kbits/s speed=0.211x    frame=  185 fps= 14 q=48.0 size=       1kB time=00:00:02.84 bitrate=   2.1kbits/s speed=0.214x    frame=  194 fps= 14 q=48.0 size=       1kB time=00:00:03.02 bitrate=   1.9kbits/s speed=0.217x    frame=  202 fps= 14 q=48.0 size=       1kB time=00:00:03.18 bitrate=   1.8kbits/s speed=0.219x    frame=  209 fps= 14 q=48.0 size=       1kB time=00:00:03.32 bitrate=   1.8kbits/s speed=0.221x    frame=  218 fps= 14 q=48.0 size=       1kB time=00:00:03.50 bitrate=   1.7kbits/s speed=0.225x    frame=  224 fps= 14 q=48.0 size=       1kB time=00:00:03.62 bitrate=   1.6kbits/s speed=0.225x    frame=  232 fps= 14 q=48.0 size=       1kB time=00:00:03.78 bitrate=   1.6kbits/s speed=0.227x    frame=  240 fps= 14 q=48.0 size=       1kB time=00:00:03.94 bitrate=   1.5kbits/s speed=0.23x    frame=  247 fps= 14 q=48.0 size=       1kB time=00:00:04.08 bitrate=   1.4kbits/s speed=0.231x    frame=  254 fps= 14 q=48.0 size=       1kB time=00:00:04.22 bitrate=   1.4kbits/s speed=0.232x    frame=  263 fps= 14 q=48.0 size=    5132kB time=00:00:04.40 bitrate=9553.0kbits/s speed=0.234x    frame=  271 fps= 14 q=48.0 size=    5132kB time=00:00:04.56 bitrate=9217.8kbits/s speed=0.235x    frame=  277 fps= 14 q=48.0 size=    5132kB time=00:00:04.68 bitrate=8981.5kbits/s speed=0.235x    frame=  285 fps= 14 q=48.0 size=    5132kB time=00:00:04.84 bitrate=8684.7kbits/s speed=0.237x    frame=  287 fps= 14 q=48.0 size=    5132kB time=00:00:04.88 bitrate=8613.5kbits/s speed=0.23x    frame=  296 fps= 14 q=48.0 size=    5712kB time=00:00:05.06 bitrate=9245.7kbits/s speed=0.232x    frame=  302 fps= 14 q=48.0 size=    5712kB time=00:00:05.18 bitrate=9031.5kbits/s speed=0.232x    frame=  310 fps= 14 q=48.0 size=    5712kB time=00:00:05.34 bitrate=8761.0kbits/s speed=0.234x    frame=  318 fps= 14 q=48.0 size=    5712kB time=00:00:05.50 bitrate=8506.1kbits/s speed=0.234x    frame=  325 fps= 14 q=48.0 size=    5712kB time=00:00:05.64 bitrate=8295.0kbits/s speed=0.235x    frame=  331 fps= 13 q=48.0 size=    5712kB time=00:00:05.76 bitrate=8122.3kbits/s speed=0.234x    frame=  339 fps= 14 q=48.0 size=    5712kB time=00:00:05.92 bitrate=7902.8kbits/s speed=0.236x    frame=  346 fps= 14 q=48.0 size=    5712kB time=00:00:06.06 bitrate=7720.2kbits/s speed=0.237x    frame=  353 fps= 14 q=48.0 size=    5712kB time=00:00:06.20 bitrate=7545.9kbits/s speed=0.238x    frame=  360 fps= 14 q=48.0 size=    5712kB time=00:00:06.34 bitrate=7379.3kbits/s speed=0.238x    frame=  367 fps= 14 q=48.0 size=    5712kB time=00:00:06.48 bitrate=7219.9kbits/s speed=0.238x    frame=  374 fps= 13 q=48.0 size=    5712kB time=00:00:06.62 bitrate=7067.3kbits/s speed=0.239x    frame=  382 fps= 14 q=48.0 size=    5712kB time=00:00:06.78 bitrate=6900.5kbits/s speed=0.24x    frame=  389 fps= 13 q=48.0 size=    5712kB time=00:00:06.92 bitrate=6760.9kbits/s speed=0.24x    frame=  397 fps= 14 q=48.0 size=    5712kB time=00:00:07.08 bitrate=6608.2kbits/s speed=0.241x    frame=  405 fps= 14 q=48.0 size=    5712kB time=00:00:07.24 bitrate=6462.1kbits/s speed=0.242x    frame=  413 fps= 14 q=48.0 size=    5712kB time=00:00:07.40 bitrate=6322.4kbits/s speed=0.243x    frame=  416 fps= 13 q=48.0 size=    5712kB time=00:00:07.46 bitrate=6271.6kbits/s speed=0.24x    frame=  423 fps= 13 q=48.0 size=    5712kB time=00:00:07.60 bitrate=6156.1kbits/s speed=0.241x    frame=  431 fps= 13 q=48.0 size=    5712kB time=00:00:07.76 bitrate=6029.2kbits/s speed=0.242x    frame=  439 fps= 13 q=48.0 size=    5712kB time=00:00:07.92 bitrate=5907.4kbits/s speed=0.242x    frame=  446 fps= 13 q=48.0 size=    5712kB time=00:00:08.06 bitrate=5804.8kbits/s speed=0.243x    frame=  454 fps= 13 q=48.0 size=    5712kB time=00:00:08.22 bitrate=5691.8kbits/s speed=0.244x    frame=  461 fps= 13 q=48.0 size=    5712kB time=00:00:08.36 bitrate=5596.5kbits/s speed=0.244x    frame=  467 fps= 13 q=48.0 size=    5712kB time=00:00:08.48 bitrate=5517.3kbits/s speed=0.244x    frame=  474 fps= 13 q=48.0 size=    5712kB time=00:00:08.62 bitrate=5427.7kbits/s speed=0.244x    frame=  482 fps= 13 q=48.0 size=    5712kB time=00:00:08.78 bitrate=5328.8kbits/s speed=0.244x    frame=  490 fps= 13 q=48.0 size=    5712kB time=00:00:08.94 bitrate=5233.5kbits/s speed=0.245x    frame=  498 fps= 13 q=48.0 size=    5712kB time=00:00:09.10 bitrate=5141.4kbits/s speed=0.245x    frame=  500 fps= 13 q=-1.0 Lsize=   11249kB time=00:00:09.94 bitrate=9269.5kbits/s speed=0.253x    
video:11244kB audio:0kB subtitle:0kB other streams:0kB global headers:0kB muxing overhead: 0.040117%
bench: utime=136.356s
bench: maxrss=1601628kB
[libx264 @ 0x35b81c0] frame I:2     Avg QP:36.84  size:296622
[libx264 @ 0x35b81c0] frame P:126   Avg QP:46.82  size: 38622
[libx264 @ 0x35b81c0] frame B:372   Avg QP:49.23  size: 16273
[libx264 @ 0x35b81c0] consecutive B-frames:  0.8%  0.0%  0.0% 99.2%
[libx264 @ 0x35b81c0] mb I  I16..4: 22.1% 66.9% 11.0%
[libx264 @ 0x35b81c0] mb P  I16..4:  3.1%  5.2%  0.0%  P16..4: 28.0%  3.4%  1.8%  0.0%  0.0%    skip:58.5%
[libx264 @ 0x35b81c0] mb B  I16..4:  1.6%  1.7%  0.0%  B16..8: 14.4%  1.0%  0.0%  direct: 6.7%  skip:74.5%  L0:44.0% L1:55.0% BI: 1.0%
[libx264 @ 0x35b81c0] final ratefactor: 39.91
[libx264 @ 0x35b81c0] 8x8 transform intra:57.4% inter:93.4%
[libx264 @ 0x35b81c0] coded y,uvDC,uvAC intra: 15.9% 50.1% 12.2% inter: 3.0% 7.0% 0.1%
[libx264 @ 0x35b81c0] i16 v,h,dc,p: 48% 23% 12% 16%
[libx264 @ 0x35b81c0] i8 v,h,dc,ddl,ddr,vr,hd,vl,hu: 15%  9% 47%  5%  5%  5%  5%  5%  4%
[libx264 @ 0x35b81c0] i4 v,h,dc,ddl,ddr,vr,hd,vl,hu: 21% 17% 13%  9%  9%  9%  8%  8%  7%
[libx264 @ 0x35b81c0] i8c dc,h,v,p: 84%  6%  9%  1%
[libx264 @ 0x35b81c0] Weighted P-Frames: Y:1.6% UV:0.0%
[libx264 @ 0x35b81c0] ref P L0: 69.6% 30.4%
[libx264 @ 0x35b81c0] ref B L0: 87.6% 12.4%
[libx264 @ 0x35b81c0] ref B L1: 97.2%  2.8%
[libx264 @ 0x35b81c0] kb/s:9210.56
